<svg width="12" height="10" viewBox="0 0 12 10" fill="none" xmlns="http://www.w3.org/2000/svg">
<path d="M11.7892 10C11.6346 10 11.4097 9.90161 11.1145 9.70483C10.8193 9.50806 10.4961 9.19181 10.1447 8.75608C9.80733 8.33442 9.47703 7.91978 9.15375 7.51217C8.81642 7.10455 8.48611 6.69694 8.16283 6.28933C7.8255 5.86767 7.49519 5.45303 7.17192 5.04542C7.70603 4.42697 8.12769 3.94205 8.43692 3.59066C8.74614 3.23928 8.99211 2.95816 9.17483 2.74733C9.35755 2.5365 9.53325 2.33972 9.70192 2.157C9.85653 1.96022 10.0533 1.72128 10.2922 1.44016C10.6858 0.976331 11.0091 0.646026 11.2621 0.449248C11.5151 0.25247 11.6908 0.147053 11.7892 0.132997H9.63867C9.73705 0.147053 9.75814 0.25247 9.70192 0.449248C9.63164 0.646026 9.39972 0.976331 9.00617 1.44016C8.68289 1.79155 8.36664 2.14294 8.05742 2.49433C7.74819 2.84572 7.43897 3.19711 7.12975 3.5485C6.80647 3.88583 6.49022 4.23019 6.181 4.58158H6.13883C5.84366 4.2583 5.51336 3.89286 5.14791 3.48525C4.78247 3.07764 4.43811 2.68408 4.11483 2.30458C3.7775 1.92508 3.5245 1.62289 3.35583 1.398C3.0185 0.94822 2.81469 0.624942 2.74441 0.428164C2.66008 0.231386 2.65305 0.132997 2.72333 0.132997H0.509581C0.650136 0.132997 0.867997 0.231386 1.16316 0.428164C1.44428 0.610887 1.76755 0.927137 2.133 1.37691C2.386 1.70019 2.70225 2.08672 3.08175 2.5365C3.46125 2.97222 3.84778 3.41497 4.24133 3.86475C4.62083 4.31453 4.96519 4.70808 5.27442 5.04542C4.96519 5.38275 4.6138 5.7763 4.22025 6.22608C3.81264 6.67586 3.41205 7.11861 3.0185 7.55433C2.62494 7.99006 2.29464 8.36956 2.02758 8.69283C1.61997 9.17072 1.28966 9.50806 1.03666 9.70483C0.769608 9.90161 0.593914 10 0.509581 10H2.66008C2.56169 10 2.54764 9.90161 2.61791 9.70483C2.67414 9.50806 2.89903 9.17072 3.29258 8.69283C3.44719 8.49606 3.70019 8.20792 4.05158 7.82842C4.38891 7.44892 4.75436 7.0413 5.14791 6.60558C5.54147 6.16986 5.89989 5.7763 6.22317 5.42492H6.26533C6.54644 5.76225 6.86269 6.14878 7.21408 6.5845C7.56547 7.02022 7.89578 7.43486 8.205 7.82842C8.51422 8.20792 8.75317 8.51011 8.92183 8.735C9.27322 9.18478 9.48405 9.50806 9.55433 9.70483C9.62461 9.90161 9.62461 10 9.55433 10H11.7892Z" fill="#232D4D"/>
</svg>
