<svg width="18" height="22" viewBox="3 0 18 22" fill="none" xmlns="http://www.w3.org/2000/svg">
<path fill-rule="evenodd" clip-rule="evenodd" d="M9.72864 3.43981C10.6228 2.54566 11.8355 2.04333 13.1 2.04333H15.5521C15.9282 2.04333 16.2332 2.34828 16.2332 2.72446V5.99384C16.2332 6.37002 15.9282 6.67497 15.5521 6.67497H13.1C13.0639 6.67497 13.0292 6.68932 13.0037 6.71487C12.9782 6.74041 12.9638 6.77506 12.9638 6.81119V8.58211H15.5521C15.7618 8.58211 15.9599 8.67874 16.0889 8.84406C16.218 9.00938 16.2637 9.22495 16.2129 9.42843L15.3955 12.6978C15.3197 13.001 15.0473 13.2137 14.7347 13.2137H12.9638V19.0714C12.9638 19.4476 12.6589 19.7525 12.2827 19.7525H9.01329C8.63712 19.7525 8.33217 19.4476 8.33217 19.0714V13.2137H6.56125C6.18508 13.2137 5.88013 12.9088 5.88013 12.5326V9.26323C5.88013 8.88706 6.18508 8.58211 6.56125 8.58211H8.33217V6.81119C8.33217 5.54668 8.83449 4.33395 9.72864 3.43981ZM13.1 3.40558C12.1968 3.40558 11.3306 3.76438 10.6919 4.40306C10.0532 5.04174 9.69441 5.90797 9.69441 6.81119V9.26323C9.69441 9.63941 9.38946 9.94435 9.01329 9.94435H7.24237V11.8515H9.01329C9.38946 11.8515 9.69441 12.1564 9.69441 12.5326V18.3903H11.6016V12.5326C11.6016 12.1564 11.9065 11.8515 12.2827 11.8515H14.2029L14.6797 9.94435H12.2827C11.9065 9.94435 11.6016 9.63941 11.6016 9.26323V6.81119C11.6016 6.41377 11.7594 6.03263 12.0404 5.75161C12.3215 5.4706 12.7026 5.31272 13.1 5.31272H14.8709V3.40558H13.1Z" fill="#F2F7F5"/>
</svg>
