<svg width="15" height="22" viewBox="0 0 15 22" fill="none" xmlns="http://www.w3.org/2000/svg">
<path d="M14.1296 21.7895L13.7276 22L2.89186 4.96667C2.25719 4.81229 1.91017 4.26661 1.56191 3.71813C1.32932 3.35378 0.401447 1.89527 -1.23978e-05 0C1.6083 1.2637 2.53618 2.72221 2.76752 3.08768C3.11517 3.63504 3.46343 4.18184 3.29332 4.75727L14.1296 21.7895Z" fill="black"/>
<path d="M14.1296 21.7895L13.7276 22L2.89186 4.96667C2.25719 4.81229 1.91017 4.26661 1.56191 3.71813C1.32932 3.35378 0.401447 1.89527 -1.23978e-05 0C1.6083 1.2637 2.53618 2.72221 2.76752 3.08768C3.11517 3.63504 3.46343 4.18184 3.29332 4.75727L14.1296 21.7895Z" fill="#232D4D"/>
<path d="M0.870964 21.7895L1.27242 22L12.1081 4.96667C12.7422 4.81229 13.0898 4.26661 13.4381 3.71813C13.67 3.35378 14.5979 1.89527 15 0C13.3917 1.2637 12.4638 2.72221 12.2325 3.08768C11.8848 3.63504 11.5366 4.18184 11.7067 4.75727L0.870964 21.7895Z" fill="black"/>
<path d="M0.870964 21.7895L1.27242 22L12.1081 4.96667C12.7422 4.81229 13.0898 4.26661 13.4381 3.71813C13.67 3.35378 14.5979 1.89527 15 0C13.3917 1.2637 12.4638 2.72221 12.2325 3.08768C11.8848 3.63504 11.5366 4.18184 11.7067 4.75727L0.870964 21.7895Z" fill="#232D4D"/>
</svg>
