<svg width="22" height="22" viewBox="0 0 22 22" fill="none" xmlns="http://www.w3.org/2000/svg">
<path d="M14.5306 6.35716C14.5306 5.85559 14.9372 5.44899 15.4388 5.44899C15.9403 5.44899 16.3469 5.85559 16.3469 6.35716C16.3469 6.85872 15.9403 7.26532 15.4388 7.26532C14.9372 7.26532 14.5306 6.85872 14.5306 6.35716Z" fill="#F2F7F5"/>
<path fill-rule="evenodd" clip-rule="evenodd" d="M10.8979 6.5842C8.51551 6.5842 6.58417 8.51554 6.58417 10.898C6.58417 13.2804 8.51551 15.2117 10.8979 15.2117C13.2804 15.2117 15.2117 13.2804 15.2117 10.898C15.2117 8.51554 13.2804 6.5842 10.8979 6.5842ZM7.94641 10.898C7.94641 9.26789 9.26786 7.94644 10.8979 7.94644C12.528 7.94644 13.8495 9.26789 13.8495 10.898C13.8495 12.5281 12.528 13.8495 10.8979 13.8495C9.26786 13.8495 7.94641 12.5281 7.94641 10.898Z" fill="#F2F7F5"/>
<path fill-rule="evenodd" clip-rule="evenodd" d="M15.6733 2.57285C12.5251 2.221 9.27083 2.221 6.12261 2.57285C4.29534 2.77708 2.82018 4.21653 2.60535 6.05331C2.22888 9.27212 2.22888 12.5238 2.60535 15.7426C2.82018 17.5794 4.29534 19.0189 6.12261 19.2231C9.27083 19.5749 12.5251 19.5749 15.6733 19.2231C17.5006 19.0189 18.9757 17.5794 19.1906 15.7426C19.567 12.5238 19.567 9.27212 19.1906 6.05331C18.9757 4.21653 17.5006 2.77708 15.6733 2.57285ZM6.27392 3.92667C9.32158 3.58605 12.4743 3.58605 15.522 3.92667C16.7299 4.06168 17.6976 5.0149 17.8375 6.21156C18.2017 9.32522 18.2017 12.4707 17.8375 15.5844C17.6976 16.781 16.7299 17.7343 15.522 17.8693C12.4743 18.2099 9.32158 18.2099 6.27392 17.8693C5.06597 17.7343 4.09833 16.781 3.95837 15.5844C3.5942 12.4707 3.5942 9.32522 3.95837 6.21156C4.09833 5.0149 5.06597 4.06168 6.27392 3.92667Z" fill="#F2F7F5"/>
</svg>
