<svg width="23" height="22" viewBox="0 0 23 22" fill="none" xmlns="http://www.w3.org/2000/svg">
<path fill-rule="evenodd" clip-rule="evenodd" d="M14.2441 3.03641C14.7058 2.95732 15.2228 2.93092 15.7094 3.01323C16.5784 3.16025 17.381 3.56414 18.0155 4.16966C18.4303 4.17904 18.8379 4.09733 19.1986 3.98085C19.5038 3.88227 19.7616 3.76323 19.9423 3.66911C20.0322 3.62232 20.1016 3.58239 20.1467 3.55537C20.1692 3.54187 20.1856 3.53166 20.1953 3.5255L20.2039 3.51999C20.4735 3.34042 20.8324 3.37537 21.0621 3.60378C21.2918 3.83224 21.3288 4.19089 21.1505 4.46144C20.9619 4.74778 20.7 5.25823 20.4066 5.83015C20.3605 5.92008 20.3136 6.01152 20.2661 6.10386C20.0978 6.43076 19.9253 6.76116 19.7644 7.04463C19.6635 7.22262 19.5555 7.40332 19.4466 7.55947V7.80811C19.4535 8.72138 19.3487 9.62989 19.1361 10.5137C19.0024 11.0698 18.826 11.6162 18.6078 12.1478C18.0425 13.5252 17.2085 14.7761 16.1543 15.8275C15.1002 16.879 13.8471 17.7098 12.4683 18.2715C11.0907 18.8328 9.61517 19.1141 8.12774 19.0992C5.97147 19.1011 3.86057 18.4798 2.04904 17.3102C1.78222 17.1379 1.66988 16.8041 1.77826 16.5056C1.88663 16.207 2.18696 16.023 2.50215 16.062C2.77493 16.0958 3.04957 16.1122 3.32443 16.1113C4.31201 16.1086 5.28078 15.8904 6.16521 15.4793C5.88408 15.3513 5.61569 15.1935 5.3649 15.0076C4.62773 14.4609 4.07928 13.6981 3.79587 12.8253C3.72222 12.5984 3.77257 12.3496 3.9286 12.1693C3.9314 12.166 3.93422 12.1628 3.93707 12.1597C3.7704 12.0111 3.61444 11.8492 3.47086 11.6752C2.82487 10.8922 2.46916 9.91006 2.46391 8.89497L2.46389 8.89145L2.4639 8.84604C2.4639 8.60459 2.59173 8.38119 2.79988 8.25884C2.85265 8.22782 2.90858 8.20448 2.96611 8.18882C2.65885 7.57574 2.49906 6.89875 2.50023 6.21195C2.49987 5.43386 2.70311 4.66922 3.08977 3.99399C3.20139 3.79907 3.40194 3.67171 3.62583 3.65357C3.84972 3.63543 4.06816 3.72884 4.20971 3.90325C5.08386 4.98034 6.17483 5.86149 7.41174 6.48946C8.04757 6.81227 8.71466 7.06446 9.40105 7.24286C9.78588 7.34287 10.1768 7.41969 10.5716 7.47275C10.5542 6.81592 10.6839 6.15943 10.9561 5.55284C11.3554 4.663 12.0388 3.93086 12.899 3.47125C13.2633 3.2766 13.7469 3.12157 14.2441 3.03641ZM4.00167 9.89076C4.11941 10.2221 4.29457 10.533 4.52166 10.8083C4.96786 11.3491 5.58718 11.7193 6.27486 11.8561C6.58117 11.917 6.80679 12.1785 6.82225 12.4904C6.83771 12.8023 6.63905 13.0848 6.34027 13.1757C6.0928 13.251 5.83926 13.3035 5.58284 13.3326C5.75228 13.5511 5.95161 13.7467 6.17629 13.9133C6.68594 14.2912 7.30072 14.5009 7.93508 14.5131C8.22289 14.5186 8.47614 14.7045 8.56771 14.9774C8.65928 15.2504 8.56938 15.5514 8.34315 15.7294C7.39034 16.4791 6.28855 17.0019 5.12106 17.2688C6.0887 17.5787 7.10352 17.7382 8.13001 17.737L8.13792 17.7369C9.44572 17.7505 10.7431 17.5034 11.9543 17.01C13.1656 16.5165 14.2663 15.7867 15.1923 14.8631C16.1183 13.9394 16.851 12.8406 17.3475 11.6306C17.5392 11.1636 17.6942 10.6837 17.8117 10.1952C17.9986 9.418 18.0906 8.61912 18.0843 7.81606L18.0843 7.81073V7.32941C18.0843 7.16425 18.1443 7.00473 18.2532 6.88052C18.3161 6.80873 18.4261 6.64294 18.5796 6.3724C18.7255 6.11527 18.887 5.80659 19.0549 5.48039C19.065 5.46066 19.0752 5.44083 19.0855 5.42091C18.6499 5.51549 18.1563 5.56506 17.6388 5.50914C17.4749 5.49143 17.323 5.41488 17.2112 5.29369C16.7545 4.79844 16.1464 4.46877 15.4822 4.35639C15.1874 4.30653 14.8311 4.31794 14.4741 4.3791C14.0862 4.44554 13.7486 4.5618 13.541 4.67275C12.9468 4.99022 12.4748 5.49592 12.199 6.11055C11.9232 6.72519 11.8591 7.41398 12.017 8.06891C12.0673 8.2777 12.0162 8.49801 11.8791 8.66332C11.742 8.82863 11.5349 8.91959 11.3204 8.90874C10.5545 8.87 9.79661 8.75316 9.05839 8.5613C8.27746 8.35833 7.51848 8.0714 6.79506 7.70413C5.72998 7.16339 4.76001 6.45767 3.92011 5.61517C3.88179 5.81098 3.86234 6.0108 3.86247 6.21192L3.86247 6.21366C3.86152 6.7138 3.98426 7.20642 4.21976 7.64765C4.45525 8.08888 4.7962 8.46503 5.21224 8.74262C5.46473 8.91108 5.57528 9.22628 5.48332 9.51555C5.39137 9.80482 5.1191 9.99833 4.81568 9.99007C4.54088 9.9826 4.26837 9.94917 4.00167 9.89076Z" fill="#F2F7F5"/>
</svg>
